<?xml version="1.0" encoding="UTF-8"?>
<svg id="Layer_1" xmlns="http://www.w3.org/2000/svg" version="1.1" viewBox="0 0 1343 1210.5">
  <!-- Generator: Adobe Illustrator 29.7.0, SVG Export Plug-In . SVG Version: 2.1.1 Build 138)  -->
  <rect x="58.2" y="312.5" width="213.8" height="114" fill="#fff"/>
  <g id="Layer_11">
    <g id="Layer_3">
      <g>
        <path d="M373.2,195.5h-23c-4,0-7.5,3.5-7.5,7.5v23c0,4,3.5,7.5,7.5,7.5h23c4,0,7.5-3.5,7.5-7.5v-23c.5-5-4-7.5-7.5-7.5" fill="#5692cd"/>
        <g>
          <g>
            <circle cx="366.7" cy="212.5" r="1" fill="#fff"/>
            <path d="M370.2,219.5l-.5-1-.5-3.5h0s-1-.5-1.5-1h-2.5c-.5,0-1,.5-1,.5h-.5l-.5,3.5-.5,1c0,.33.17.5.5.5s.5-.17.5-.5v-.5l1-4h.5l-1,4.5-.5,1.5s0,.5.5.5h1l.5,4.5c0,1,1,1,1.5,0l.5-4.5h1s.5,0,.5-.5l-.5-1.5-1-4.5h.5l1,4v.5c0,.5.5.5.5.5.33.33.5.33.5,0Z" fill="#fff"/>
          </g>
          <g>
            <circle cx="357.7" cy="211" r="1.5" fill="#fff"/>
            <path d="M360.7,213c-.5,0-.5-.5-1-.5h-4c-.33,0-.67.17-1,.5v5c0,.5.5.5.5.5.5,0,.5-.5.5-.5h0v-4h.5l.5,5.5.5,6.5c0,1,1,1,1,0l.5-6.5.5-5.5h.5v4h0c0,.5.5.5.5.5.5,0,.5-.5.5-.5v-5q0,.33,0,0Z" fill="#fff"/>
          </g>
          <path d="M349.2,206v24.5c0,.5.5.5.5.5h24.5c.5,0,.5-.5.5-.5v-24.5c0-.5-.5-.5-.5-.5h-24.5c-.33,0-.5.17-.5.5ZM372.7,230h-22c-.5,0-.5-.5-.5-.5v-22c0-.5.5-.5.5-.5h22c.5,0,.5.5.5.5v22c.5,0,0,.5-.5.5Z" fill="#fff"/>
          <path d="M369.2,200l-2.5-3h-.5l-2.5,3v1h0c0,.5.5.5,1,0l1-1h.5v4c0,.33.17.5.5.5h.5c.5,0,.5-.5.5-.5v-4s0-.5.5,0l1,1c0,.5.5.5,1,0h0c-.5-.5-.5-1-1-1Z" fill="#fff"/>
          <path d="M354.7,201l2.5,3h.5l2.5-3v-1h0c0-.5-.5-.5-1,0l-1,1h-.5v-4c0-.33-.17-.5-.5-.5h-.5c-.5,0-.5.5-.5.5v4s0,.5-.5,0v-.5c0-.5-.5-.5-1,0h0v.5Z" fill="#fff"/>
        </g>
      </g>
      <rect x="671.2" y="184.5" width="94" height="91" fill="#fdce8b"/>
      <rect x="671.2" y="184.5" width="94" height="91" fill="none" stroke="#231f20" stroke-miterlimit="10" stroke-width="2.78"/>
      <g>
        <path d="M706.2,232c-.5,2.5-1.5,4.5-3,6s-4,2-6.5,2c-3,0-5.5-1-7-3-2-2-2.5-5-2.5-8.5v-2.5c0-2.5.5-4.5,1.5-6,1-2,2-3,3.5-4s3.5-1.5,5.5-1.5c2.5,0,5,.5,6.5,2s2.5,3.5,3,6h-3.5c-.5-2-1-3.5-2-4.5s-2.5-1.5-4-1.5c-2,0-4,1-5,2.5s-2,4-2,6.5v2.5c0,2.5.5,5,1.5,6.5s2.5,2.5,5,2.5c2,0,3.5-.5,4.5-1.5s1.5-2.5,2-4.5h2.5v1Z" fill="#fff"/>
        <path d="M714.2,230v10h-3.5v-25h9.5c3,0,5,.5,6.5,2s2.5,3.5,2.5,5.5c0,2.5-1,4.5-2.5,5.5-1.5,1.5-3.5,2-6.5,2h-6ZM714.2,227.5h6c2,0,3-.5,4-1.5s1.5-2,1.5-3.5-.5-2.5-1.5-3.5-2-1.5-4-1.5h-6v10Z" fill="#fff"/>
        <path d="M743.2,240h-3v-21.5l-6.5,2.5v-3l9-3.5h.5v25.5Z" fill="#fff"/>
      </g>
      <rect x="1103.7" y="328.5" width="94" height="91" fill="#fdce8b"/>
      <rect x="1103.7" y="328.5" width="94" height="91" fill="none" stroke="#231f20" stroke-miterlimit="10" stroke-width="2.78"/>
      <g>
        <path d="M1140.7,376c-.5,2.5-1.5,4.5-3,6s-4,2-6.5,2c-3,0-5.5-1-7-3-2-2-2.5-5-2.5-8.5v-2.5c0-2.5.5-4.5,1.5-6,1-2,2-3,3.5-4s3.5-1.5,5.5-1.5c2.5,0,5,.5,6.5,2s2.5,3.5,3,6h-3.5c-.5-2-1-3.5-2-4.5s-2.5-1.5-4-1.5c-2,0-4,1-5,2.5s-2,4-2,6.5v3c0,2.5.5,5,1.5,6.5s2.5,2.5,5,2.5c2,0,3.5-.5,4.5-1.5s1.5-2.5,2-4.5h2.5v.5Z" fill="#fff"/>
        <path d="M1148.2,374v10h-3.5v-25h9.5c3,0,5,.5,6.5,2s2.5,3.5,2.5,5.5c0,2.5-1,4.5-2.5,5.5-1.5,1.5-3.5,2-6.5,2h-6ZM1148.2,371.5h6c2,0,3-.5,4-1.5s1.5-2,1.5-3.5-.5-2.5-1.5-3.5-2-1.5-4-1.5h-6v10Z" fill="#fff"/>
        <path d="M1171.2,370h2.5c1.5,0,2.5-.5,3.5-1,1-1,1.5-2,1.5-3,0-3-1.5-4.5-4.5-4.5-1.5,0-2.5.5-3.5,1s-1,2-1,3h-3c0-2,.5-3.5,2-5s3.5-2,5.5-2c2.5,0,4,.5,5.5,2s2,3,2,5.5c0,1-.5,2-1,3s-1.5,2-3,2.5c1.5.5,2.5,1,3,2,1,1,1,2.5,1,3.5,0,2.5-.5,4-2,5.5s-3.5,2-6,2-4.5-.5-6-2-2-3-2-5h3c0,1.5.5,2.5,1.5,3,1,1,2,1,3.5,1s2.5-.5,3.5-1c1-1,1-2,1-3.5s-.5-2.5-1.5-3.5-2-1-4-1h-2.5v-2.5h1Z" fill="#fff"/>
      </g>
      <polygon points="271.7 314 323.7 312 356.7 275 602.2 275 602.2 426.5 271.7 426.5 271.7 314" fill="#ec1b2e"/>
      <path d="M602.7,274.5v153M602.7,426.5H58.7l-.5-114h265M603.2,274.5h-246.5l-34,38.5h-49.5v115" fill="none" stroke="#231f20" stroke-width="2.7"/>
      <g>
        <path d="M157.7,367c0,1-.5,2.5-1,3.5s-1.5,1.5-2.5,2c1.5.5,2.5,1.5,3,2.5s1,2,1,3.5c0,2-.5,4-2,5-1.5,1.5-3.5,2-5.5,2-2.5,0-4-.5-5.5-2s-2-3-2-5c0-1.5.5-2.5,1-3.5s1.5-2,3-2.5c-1-.5-2-1.5-2.5-2-.5-1-1-2-1-3,0-2,.5-3.5,2-5,1.5-1,3-2,5-2s4,.5,5,2,2,2.5,2,4.5ZM155.2,378c0-1.5-.5-2.5-1.5-3.5s-2-1.5-3.5-1.5-2.5.5-3.5,1.5-1.5,2-1.5,3.5.5,2.5,1,3.5,3,1,4.5,1,2.5-.5,3.5-1c.5-1,1-2,1-3.5ZM150.7,362.5c-1,0-2,.5-3,1-1,1-1,2-1,3s.5,2,1,3,1.5,1,3,1,2-.5,3-1c.5-1,1-2,1-3s-.5-2.5-1-3c-1-.5-2-1-3-1Z"/>
        <path d="M172.7,385h-3v-20.5l-6,2.5v-3l9-3.5h.5v24.5h-.5Z"/>
      </g>
      <rect x="330.7" y="347" width="210.5" height="64.5" fill="#fff"/>
      <g>
        <rect x="345.2" y="361.5" width="48" height="35.5" fill="#55b849"/>
        <rect x="382.2" y="361.5" width="5" height="35.5" fill="#ffe48f"/>
        <rect x="368.7" y="361.5" width="3" height="35.5" fill="#ffdd75"/>
        <rect x="357.7" y="361.5" width="6" height="35.5" fill="#d4df50"/>
        <rect x="364.2" y="361.5" width="1" height="35.5" fill="#b11f3c"/>
        <rect x="350.7" y="361.5" width="8.5" height="35.5" fill="#7bc043"/>
        <rect x="383.2" y="361.5" width="1.5" height="35.5" fill="#299045"/>
        <path d="M413.2,364.5h-3.5c-6,0-10,3.5-10,9s4,9,10,9h3.5v2h-3.5c-6.5,0-12-4.5-12-10.5,0-6.5,5-10.5,12-10.5h3.5v1" fill="#f2776e"/>
        <path d="M417.7,384.5v-12c0-3.5,2.5-9.5,9-9.5h2v1.5h-2c-3.5,0-7,3.5-7,8.5v11h-2" fill="#f2776e"/>
        <path d="M433.2,363.5v12.5c0,4.5,3.5,7,7.5,7s7.5-3,7.5-7v-12.5h2v13c0,5-4,8.5-9,8.5s-9-3.5-9-8.5v-13h1" fill="#f2776e"/>
        <path d="M472.2,384.5v-12.5c0-4.5-3.5-7.5-7.5-7.5s-7.5,3-7.5,7.5v12.5h-1.5v-13c0-5,4-8.5,9-8.5s9,3.5,9,8.5v13h-1.5" fill="#f2776e"/>
        <path d="M494.2,364.5h-3.5c-6,0-10,3.5-10,9s4,9,10,9h3.5v2h-3.5c-6.5,0-12-4.5-12-10.5,0-6.5,5-10.5,12-10.5h3.5v1" fill="#f2776e"/>
        <path d="M515.7,384.5v-12.5c0-4.5-3.5-7.5-7.5-7.5s-7.5,3-7.5,7.5v12.5h-2v-28.5h2v10.5h0c1.5-2,4.5-3.5,7.5-3.5,5,0,9,3.5,9,8.5v13h-1.5" fill="#f2776e"/>
        <rect x="364.7" y="361.5" width="3" height="35.5" fill="#d4df50"/>
        <rect x="375.7" y="361.5" width="8" height="35.5" fill="#f2776e"/>
        <polygon points="398.2 393.5 398.2 400.5 399.2 400.5 399.2 397.5 401.7 397.5 401.7 396.5 399.2 396.5 399.2 394.5 401.7 394.5 401.7 393.5 398.2 393.5" fill="#f2776e"/>
        <polygon points="403.7 393.5 403.7 400.5 407.2 400.5 407.2 399.5 404.7 399.5 404.7 397.5 407.2 397.5 407.2 396.5 404.7 396.5 404.7 394.5 407.2 394.5 407.2 393.5 403.7 393.5" fill="#f2776e"/>
        <polygon points="415.7 400.5 415.7 395 415.7 395 413.2 400.5 412.7 400.5 410.2 395 410.2 395 410.2 400.5 409.2 400.5 409.2 393.5 410.7 393.5 413.2 399 415.2 393.5 416.7 393.5 416.7 400.5 415.7 400.5" fill="#f2776e"/>
        <path d="M421.2,395h0l1,2.5h-1.5l.5-2.5ZM421.2,393.5l-2.5,7h1l1-2h2.5l1,2h1l-2.5-7h-1.5Z" fill="#f2776e"/>
        <polygon points="426.2 393.5 426.2 400.5 429.7 400.5 429.7 399.5 427.2 399.5 427.2 393.5 426.2 393.5" fill="#f2776e"/>
        <polygon points="431.2 393.5 431.2 400.5 434.7 400.5 434.7 399.5 432.2 399.5 432.2 397.5 434.7 397.5 434.7 396.5 432.2 396.5 432.2 394.5 434.7 394.5 434.7 393.5 431.2 393.5" fill="#f2776e"/>
        <polygon points="440.2 393.5 440.2 400.5 441.2 400.5 441.2 397.5 443.7 397.5 443.7 396.5 441.2 396.5 441.2 394.5 443.7 394.5 443.7 393.5 440.2 393.5" fill="#f2776e"/>
        <rect x="445.7" y="393.5" width="1" height="7" fill="#f2776e"/>
        <polygon points="448.7 393.5 448.7 394.5 449.7 394.5 449.7 400.5 450.7 400.5 450.7 394.5 452.2 394.5 452.2 393.5 448.7 393.5" fill="#f2776e"/>
        <polygon points="458.2 393.5 458.2 399 458.2 399 455.2 393.5 453.7 393.5 453.7 400.5 454.7 400.5 454.7 395.5 454.7 395.5 458.2 400.5 459.2 400.5 459.2 393.5 458.2 393.5" fill="#f2776e"/>
        <polygon points="461.7 393.5 461.7 400.5 465.2 400.5 465.2 399.5 462.7 399.5 462.7 397.5 465.2 397.5 465.2 396.5 462.7 396.5 462.7 394.5 465.2 394.5 465.2 393.5 461.7 393.5" fill="#f2776e"/>
        <g>
          <path d="M467.7,398.5s0,1,1,1c.5,0,1-.5,1-1,0-1-.5-1-1-1-.67-.33-1.17-.67-1.5-1-.5-.5-.5-1-.5-1.5,0-1,.5-2,2-2,1,0,2,.5,2,2h-1c0-1-.5-1-1-1s-1,.5-1,1,.5,1,1,1c1,.5,2,.5,2,2,0,1-1,2-2,2s-2-.5-2-2h1" fill="#f2776e"/>
          <path d="M473.2,398.5s0,1,1,1c.5,0,1-.5,1-1,0-1-.5-1-1-1-.67-.33-1.17-.67-1.5-1-.5-.5-.5-1-.5-1.5,0-1,.5-2,2-2,1,0,2,.5,2,2h-.5c0-1-.5-1-1-1s-1,.5-1,1,.5,1,1,1c1,.5,2,.5,2,2,0,1-1,2-2,2s-2-.5-2-2h.5" fill="#f2776e"/>
          <path d="M487.2,395.5s-1-1-2-1c-1.5,0-2.5,1-2.5,2.5s1,2.5,2.5,2.5c.5,0,1.5-.5,2-1h1c-1,1.5-2,2-3,2-2,0-3.5-1.5-3.5-3.5s1.5-3.5,3.5-3.5c.5,0,1.5,0,2,.5l1,1h-1" fill="#f2776e"/>
          <polygon points="490.2 400.5 490.2 393.5 493.7 393.5 493.7 394.5 491.2 394.5 491.2 396.5 493.7 396.5 493.7 397.5 491.2 397.5 491.2 399.5 493.7 399.5 493.7 400.5 490.2 400.5" fill="#f2776e"/>
          <polygon points="500.2 400.5 496.7 395.5 496.7 395.5 496.7 400.5 495.7 400.5 495.7 393.5 497.2 393.5 500.2 399 500.2 399 500.2 393.5 501.2 393.5 501.2 400.5 500.2 400.5" fill="#f2776e"/>
          <polygon points="504.2 400.5 504.2 394.5 503.2 394.5 503.2 393.5 506.7 393.5 506.7 394.5 505.2 394.5 505.2 400.5 504.2 400.5" fill="#f2776e"/>
          <path d="M511.7,400.5l-2.5-3h0v3h-1v-7h2c1,0,1.5,0,2,.5s.5,1,.5,1.5c0,2-1.5,2-2,2l2,2.5h-1M509.2,397.5h.5c.5,0,2,0,2-1.5,0-.5-.5-1.5-1.5-1.5h-1v3Z" fill="#f2776e"/>
          <polygon points="514.7 400.5 514.7 393.5 518.2 393.5 518.2 394.5 515.7 394.5 515.7 396.5 518.2 396.5 518.2 397.5 515.7 397.5 515.7 399.5 518.2 399.5 518.2 400.5 514.7 400.5" fill="#f2776e"/>
        </g>
        <g>
          <path d="M427.7,327.5c-.5,2.5-1.5,4.5-3,6s-3.5,2-6.5,2-5-1-7-3c-1.5-2-2.5-5-2.5-8.5v-2.5c0-2.5.5-4.5,1-6s2-3,3.5-4,3-1.5,5-1.5c2.5,0,4.5.5,6,2s2.5,3.5,2.5,6h-3c-.5-2-1-3.5-2-4s-2-1.5-4-1.5-3.5,1-5,2.5c-1,1.5-1.5,3.5-1.5,6.5v2.5c0,2.5.5,5,1.5,6.5s2.5,2.5,4.5,2.5,3-.5,4-1c1-1,1.5-2,2-4h4.5v-.5Z" fill="#fff"/>
          <path d="M435.2,326v9.5h-3v-24.5h9c2.5,0,5,.5,6.5,2s2.5,3,2.5,5.5-.5,4-2,5.5-3.5,2-6.5,2h-6.5ZM435.2,323h6c1.5,0,3-.5,4-1,1-1,1.5-2,1.5-3.5s-.5-2.5-1.5-3.5-2-1.5-4-1.5h-6v9.5Z" fill="#fff"/>
          <path d="M468.7,335.5h-16v-2l8.5-9.5c1.5-1.5,2-2.5,2.5-3.5s.5-2,.5-3c0-1.5-.5-2.5-1-3-1-1-2-1-3-1-1.5,0-2.5.5-3.5,1.5s-1.5,2-1.5,3.5h-3c0-2,.5-4,2-5.5s3.5-2,6-2,4,.5,5.5,2c1.5,1,2,3,2,5,0,2.5-1.5,5.5-4.5,8.5l-6.5,7h12v2Z" fill="#fff"/>
        </g>
      </g>
    </g>
  </g>
  <g>
    <path d="M105.5,117.75v8.3c0,12-7.8,14.1-17.3,14.1h-23v-70h22c9.5,0,17.3,2.1,17.3,14.1v6.8c0,8.4-2.9,11.8-7.7,13.2,5.4,1.2,8.7,4.6,8.7,13.5ZM87.2,76.75h-13.1v24.2h13.1c5.5,0,8.4-2.5,8.4-7.5v-9.2c0-5-2.9-7.5-8.4-7.5ZM96.6,114.75c0-5-2.9-7.5-8.4-7.5h-14.1v26.3h14.1c5.5,0,8.4-2.5,8.4-7.5v-11.3Z"/>
    <path d="M145,128.85h-23l-2.8,11.3h-7.8l18-70h9.7l18,70h-9.2l-2.9-11.3ZM143.4,122.35l-10.1-39.8-9.7,39.8s19.8,0,19.8,0Z"/>
    <path d="M164,126.25v-7.2h8.9v7.2c0,5.5,4.4,8,11.4,8s11.1-2.5,11.1-8.5v-9.1c0-5-1.5-8.4-7.9-8.5l-7.7-.3c-9.4-.2-15.8-2.1-15.8-12.2v-10.6c0-13,9.6-15.3,20.1-15.3s20.2,2.3,20.2,14.8v7h-8.9v-7c0-6-4.8-8.5-11.3-8.5s-11.2,2.5-11.2,9v8.8c0,5,1.9,7.5,7.7,7.7l7.7.3c9.7.2,16,2.7,16,11v12.9c0,12.5-10,14.8-20,14.8s-20.3-2.3-20.3-14.3Z"/>
    <path d="M225.7,76.75v24.1h21.9v6.5h-21.9v26.2h21.9v6.6h-30.8v-70h30.8v6.6s-21.9,0-21.9,0Z"/>
    <path d="M312.1,70.15v70h-8.2v-52.4l-15.4,52.4h-7l-15.2-51.7v51.7h-7.2v-70h9.7l16.9,55.6,16.7-55.6s9.7,0,9.7,0Z"/>
    <path d="M335,76.75v24.1h21.9v6.5h-21.9v26.2h21.9v6.6h-30.8v-70h30.8v6.6s-21.9,0-21.9,0Z"/>
    <path d="M408.7,70.15v70h-8.7l-24.3-52.7v52.7h-7.3v-70h8.7l24.4,55.4v-55.4h7.2,0Z"/>
    <path d="M457.3,76.75h-15.9v63.4h-8.9v-63.4h-15.8v-6.6h40.6v6.6h0Z"/>
    <path d="M485.09,123.25v-36.2c0-14,6.8-17.3,20.1-17.3s20.2,3.3,20.2,14.8v6.7h-8.9v-6.7c0-4.5-2-8.5-11.3-8.5s-11.2,4-11.2,11v36.2c0,7,1.9,11,11.2,11s11.3-4.5,11.3-9v-6.3h8.9v6.3c0,11.5-6.9,15.4-20.2,15.4s-20.1-3.4-20.1-17.4Z"/>
    <path d="M565.39,128.85h-23l-2.8,11.3h-7.8l18-70h9.7l18,70h-9.2l-2.9-11.3ZM563.79,122.35l-10.1-39.8-9.7,39.8s19.8,0,19.8,0Z"/>
    <path d="M617.89,140.15l-12.1-26.3h-11.3v26.3h-8.9v-70l19.7-.1c13.3,0,19.9,3.5,19.9,16.5v9.8c0,9.6-2.9,14.5-10.1,16.5l12.4,27.3h-9.6ZM594.49,107.55h10.8c9.3,0,11-4,11-10v-11c0-6-1.7-10-11-10h-10.8v31Z"/>
    <path d="M697.49,86.55v9.8c0,13-5.3,17.5-19.6,17.5h-11.3v26.3h-8.9v-70l20-.1c13.3,0,19.8,3.5,19.8,16.5ZM688.59,86.55c0-6-1.6-10-10.9-10h-11.1v31h11.1c9.3,0,10.9-4,10.9-10v-11Z"/>
    <path d="M732.49,128.85h-23l-2.8,11.3h-7.8l18-70h9.7l18,70h-9.2l-2.9-11.3ZM730.89,122.35l-10.1-39.8-9.7,39.8s19.8,0,19.8,0Z"/>
    <path d="M784.99,140.15l-12.1-26.3h-11.3v26.3h-8.9v-70l19.7-.1c13.3,0,19.9,3.5,19.9,16.5v9.8c0,9.6-2.9,14.5-10.1,16.5l12.4,27.3h-9.6ZM761.59,107.55h10.8c9.3,0,11-4,11-10v-11c0-6-1.7-10-11-10h-10.8v31Z"/>
    <path d="M847.19,140.15h-9.1l-14-32.3h-11.2v32.3h-8.9v-70h8.9v30.6l9.8-.2,15.5-30.4h8.5l-16,31.2,16.5,38.8Z"/>
  </g>
  <g>
    <rect x="55.1" y="495.93" width="881.2" height="586.7" fill="#fff" stroke="#75bee9" stroke-miterlimit="10"/>
    <g>
      <path d="M146.4,972.63h-30c-5.6,0-9.8,4.7-9.8,9.8v30.4c0,5.6,4.7,9.8,9.8,9.8h30c5.6,0,9.8-4.7,9.8-9.8v-30.4c.5-6.1-5.5-9.8-9.8-9.8" fill="#5793ce"/>
      <rect x="112.7" y="978.73" width="37.5" height="37.9" fill="#fff"/>
      <polygon points="150.7 982.93 144.1 988.03 144.1 1007.23 150.7 1012.83 150.7 982.93" fill="#5793ce"/>
      <path d="M130,1006.33c.9,0,1.9-.5,2.3-1.4.5-.5.9-1.4.9-2.3s-.5-1.4-.9-1.9c-.5-.5-1.4-.9-2.8-1.4l.5,7M127.2,988.03c-.9.5-1.4.5-1.9,1.4-.5.5-.5.9-.5,1.9,0,.5,0,.9.5,1.9.5.5.9.9,1.9,1.4v-6.6M127.2,1005.83v-7c-2.8-.5-4.7-1.9-5.6-2.8-.9-1.4-1.9-2.8-1.9-4.7s.5-3.7,1.9-4.7c1.4-1.4,3.3-1.9,5.6-2.3v-1.9h2.8v1.9c1.9,0,3.7.9,5.2,1.9,1.4.9,1.9,2.3,2.3,4.2l-5.2.5c-.5-1.4-1.4-2.3-2.3-2.8v7c3.3.9,5.2,1.9,6.6,2.8.9,1.4,1.9,2.8,1.9,4.7s-.5,3.7-1.9,5.2c-1.9,1.4-3.7,2.3-6.1,2.8v3.3h-2.8v-2.8c-2.3-.5-4.2-.9-5.6-2.3-1.4-1.4-2.3-2.8-2.8-5.2l5.2-.5c0,.9.5,1.9.9,2.3.4-.1.9.4,1.8.4" fill="#5793ce"/>
      <path d="M559,685.53h-28.6c-5.2,0-9.8,4.2-9.8,9.4v28.6c0,5.2,4.2,9.4,9.8,9.4h28.6c5.2,0,9.4-4.2,9.4-9.4v-28.6c.4-6.1-5.2-9.4-9.4-9.4M564.1,696.33h-9.8v11.7h-10.8v11.2h-11.2v8.9c0,1.4-.9,2.3-2.3,2.3s-2.3-.9-2.3-2.3v-14h11.2v-11.2h10.8v-11.7h15c1.4,0,2.3.9,2.3,2.3-.5,1.4-1.5,2.8-2.9,2.8" fill="#5793ce"/>
      <path d="M146.4,685.53h-30.9c-5.6,0-10.3,4.7-10.3,10.3v30.9c0,5.6,4.7,10.3,10.3,10.3h30.9c5.6,0,10.3-4.7,10.3-10.3v-30.9c0-5.6-4.6-10.3-10.3-10.3" fill="#5793ce"/>
      <path d="M125.8,724.43l1.9,1.9c3.3,3.3-.5,5.2-.5,5.2l-5.2-5.6c-.9-.9-1.4-3.3-.5-4.7l3.7-3.7,4.7,4.7c.1.3-2.7,2.2-4.1,2.2" fill="#fff"/>
      <path d="M137.1,724.43l-1.9,1.9c-3.3,3.3.5,5.2.5,5.2l5.2-5.6c1.4-.9,1.4-3.3.5-4.7l-3.7-3.7-4.2,4.7c-.6.3,2.2,2.2,3.6,2.2" fill="#fff"/>
      <path d="M137.5,715.03c0-1.4-.5-4.2-.9-5.2l2.3,2.8c4.7,4.2,8.4,2.3,8.4,2.3l-9.8-9.8c-.9-.9-2.3-1.4-3.3-1.4-.9,0-1.4.5-2.8.5-.9,0-1.9-.5-2.3-.5-.9,0-2.3,0-3.3,1.4l-9.8,9.8s3.7,1.9,8-2.3l2.3-2.3c-.5.9-.9,3.7-.9,5.2h6.1l6-.5h0" fill="#fff"/>
      <path d="M132.4,701.03c0-.5-.5-.9-.9-.9-.5,0-.9.5-.9.9s.5.9.9.9c.4.5.9,0,.9-.9M131,703.33c-3.3,0-5.6-2.8-5.6-5.6,0-3.3,2.3-5.6,5.6-5.6s5.6,2.3,5.6,5.6c.5,2.8-2.3,5.6-5.6,5.6" fill="#fff"/>
      <path d="M146.4,541.83h-30.9c-5.6,0-10.3,4.7-10.3,10.3v30.9c0,5.6,4.7,10.3,10.3,10.3h30.9c5.6,0,10.3-4.7,10.3-10.3v-30.9c0-6.1-4.6-10.3-10.3-10.3" fill="#5793ce"/>
      <path d="M116.5,550.73c0-1.9,1.4-3.7,3.7-3.7s3.7,1.4,3.7,3.7-1.4,3.7-3.7,3.7c-1.9,0-3.7-1.9-3.7-3.7" fill="#fff"/>
      <path d="M118.8,575.53v11.2s0,1.4-1.4,1.4-1.4-1.4-1.4-1.4v-11.2h-3.3l4.2-14.5h-.9l-2.3,8s-.5,1.4-1.9.9c-.9-.5-.9-1.9-.9-1.9,0,0,2.8-9.8,3.3-11.2.5-1.9,1.9-1.4,1.9-1.4h7s1.4-.5,1.9,1.4,3.3,11.2,3.3,11.2c0,0,.5,1.4-.5,1.9-1.4.5-1.9-.9-1.9-.9l-2.3-8h-.9l4.2,14.5h-3.3v11.2s0,1.4-1.4,1.4-1.4-1.4-1.4-1.4v-11.2h-2,0Z" fill="#fff"/>
      <path d="M138.9,550.23c0-1.9,1.4-3.7,3.7-3.7s3.7,1.4,3.7,3.7-1.4,3.7-3.7,3.7c-1.8.1-3.7-1.4-3.7-3.7" fill="#fff"/>
      <path d="M142.2,571.73v14.5s.5,1.9-1.4,1.9-1.9-1.9-1.9-1.9v-25.8h-.9v9.4s.5,1.9-1.4,1.9-1.4-1.9-1.4-1.9v-12.2c0-2.8,2.8-2.8,2.8-2.8h9.8s2.8,0,2.8,2.8v12.2s0,1.9-1.4,1.9c-1.9,0-1.4-1.9-1.4-1.9v-9.4h-.9v25.8s0,1.9-1.9,1.9-1.4-1.9-1.4-1.9v-14.5h-1.4Z" fill="#fff"/>
      <rect x="131" y="547.43" width="1.4" height="41.2" fill="#fff"/>
      <rect x="535.1" y="641.53" width="19.7" height="1.4" fill="#5793ce"/>
      <rect x="528.1" y="641.53" width="5.6" height="3.7" fill="#5793ce"/>
      <path d="M559,633.13c-.5-.9-.9-2.3-1.9-4.2-2.8-.5-7-.5-12.2-.5s-9.4,0-12.2.5c-.5.9-.9,2.3-1.9,4.2-.5.9-.9,2.3-1.4,4.2,4.7,0,9.8-.5,15.9-.5s10.8,0,15.9.5c-1.3-.9-1.3-2.3-2.2-4.2" fill="#5793ce"/>
      <rect x="535.1" y="644.33" width="19.7" height="1.4" fill="#5793ce"/>
      <path d="M559.4,614.43h-29.5c-5.6,0-9.8,4.7-9.8,9.8v29.5c0,5.6,4.2,9.8,9.8,9.8h29.5c5.6,0,9.8-4.2,9.8-9.8v-29.5c.1-5.6-4.1-9.8-9.8-9.8M524.3,635.03h3.7l-1.4,3.7-2.8-1.9v-1.9h.5v.1h0ZM563.6,648.53h-.9v1.4h-1.9v5.6h-6.6v-3.7c-1.4,0-1.9-.5-2.3-1.9h-15.5c0,1.4-.9,1.9-2.3,1.9v3.7h-6.6v-5.6h-1.9v-1.4h-.9v-1.9h.9v-5.6c0-1.9,1.4-6.1,4.7-12.6,1.4,0,2.8-.5,4.7-.5h0v-4.7h17.3v4.2h0c1.9,0,3.3.5,4.7.5,3.3,6.6,4.7,10.8,4.7,12.6v5.6h.9l1,2.4h0ZM565.5,636.83l-2.3,1.9-1.4-3.7h3.7v1.8h0Z" fill="#5793ce"/>
      <rect x="555.7" y="641.53" width="5.6" height="3.7" fill="#5793ce"/>
      <path d="M560.4,541.33h-30.9c-5.6,0-10.3,4.7-10.3,10.3v30.9c0,5.6,4.7,10.3,10.3,10.3h30.9c5.6,0,10.3-4.7,10.3-10.3v-30.9c0-6.5-6.1-10.3-10.3-10.3" fill="#5793ce"/>
      <path d="M560.4,556.33c-.5-4.7-3.3-8-15.9-8s-14.5,3.3-15,8c0,0-.5,5.2-.5,9.8v15c0,.5.5,1.4.9,1.4h1.9v3.7c0,.9.5,1.4,1.9,1.4h2.3c1.4,0,1.9,0,1.9-1.4v-3.7h14.5v3.7c0,.9.5,1.4,1.9,1.4h2.3c1.4,0,1.9,0,1.9-1.4v-3.7h1.9c.5,0,.9-.5.9-1.4v-14.5c-.5-4.7-.9-10.3-.9-10.3M539.3,552.53c0-.5.5-.5.5-.5h10.3c.5,0,.5.5.5.5v.5c0,.5-.5.5-.5.5h-10.3c-.33,0-.5-.17-.5-.5v-.5ZM535.1,579.23c-1.4,0-2.3-.9-2.3-2.3s.9-2.3,2.3-2.3,2.3.9,2.3,2.3-.9,2.3-2.3,2.3M543.5,565.73h-10.8c-.9,0-1.4-.5-1.4-1.4l.5-7c0-.9.5-1.4,1.4-1.4h10.3v9.8h0ZM554.8,579.23c-1.4,0-2.3-.9-2.3-2.3s.9-2.3,2.3-2.3,2.3.9,2.3,2.3c.5,1.4-.9,2.3-2.3,2.3M556.6,565.73h-10.8v-9.8h10.3c.9,0,1.4.5,1.4,1.4l.5,7c0,.9-.4,1.4-1.4,1.4" fill="#fff"/>
      <path d="M147.8,756.73h-30.9c-5.6,0-10.3,4.7-10.3,10.3v30.9c0,5.6,4.7,10.3,10.3,10.3h30.9c5.6,0,10.3-4.7,10.3-10.3v-30.9c.5-6.5-5.6-10.3-10.3-10.3" fill="#5793ce"/>
      <path d="M110.4,768.93v29.5c0,.33.17.5.5.5l.5.5h43.1c.33,0,.5-.17.5-.5l.5-.5v-29.5c0-.33-.17-.5-.5-.5-.5,0-.5-.5-.5-.5h-43.1c-.33,0-.5.17-.5.5-.33,0-.5.17-.5.5" fill="#fff"/>
      <path d="M110.4,768.93v29.5c0,.33.17.5.5.5l.5.5h43.1c.33,0,.5-.17.5-.5l.5-.5v-29.5c0-.33-.17-.5-.5-.5-.5,0-.5-.5-.5-.5h-43.1c-.33,0-.5.17-.5.5-.33,0-.5.17-.5.5Z" fill="none"/>
      <path d="M115.5,796.03h34.7l-11.2-8.9c-1.4,1.9-3.3,3.3-5.6,3.3-2.8,0-4.7-1.4-6.1-3.3l-11.8,8.9h0Z" fill="#5793ce"/>
      <polygon points="113.7 793.73 125.8 783.93 125.8 783.43 125.8 783.43 113.7 773.63 113.7 793.73" fill="#5793ce"/>
      <polygon points="152.1 793.73 152.1 773.63 139.4 783.43 139.4 783.93 139.4 783.93 152.1 793.73" fill="#5793ce"/>
      <path d="M150.2,771.23h-34.7l11.2,8.9c1.4-1.9,3.3-3.3,5.6-3.3s4.7,1.4,6.1,3.3l11.8-8.9h0Z" fill="#5793ce"/>
      <path d="M559,758.13h-28.6c-5.2,0-9.4,4.2-9.4,9.4v28.6c0,5.2,4.2,9.4,9.4,9.4h28.6c5.2,0,9.4-4.2,9.4-9.4v-28.6c-.1-6.1-5.2-9.4-9.4-9.4" fill="#5793ce"/>
      <path d="M543,769.33c0,.9-.9,1.9-2.3,1.9-.9,0-1.9-.9-1.9-1.9s.9-2.3,1.9-2.3c1.4.5,2.3,1.4,2.3,2.3" fill="#fff"/>
      <path d="M539.3,782.93l5.2-5.2.5-.5v-2.8c0-1.4-.9-2.8-2.3-2.8h-3.3c-1.4,0-2.3,1.4-2.3,2.8l.5,4.7c0,.5,0,1.4.5,1.9v3.7l1.2-1.8" fill="#fff"/>
      <path d="M559.9,778.23h-10.3v6.1h-5.6v6.1h-5.2v6.1h-8.5c-1.4,0-2.8-1.4-2.8-2.8s.9-2.3,2.3-2.3h3.7c.9,0,1.9,0,2.3-.9l16.4-16.4c.5-.9,1.4-.9,2.3-.9h5.6c1.4,0,2.3,1.4,2.3,2.3-.2,1.3-.6,2.7-2.5,2.7M560.4,770.83h-6.1c-1.4,0-2.8.5-4.2,1.9l-5.2,5.2-.5.5-5.2,5.2-1.4,1.9-3.3,3.3s-.5.5-1.4.5h-3.3c-2.8,0-5.2,2.8-5.2,5.2s1.9,5.2,5.2,5.2h11.7v-5.6h5.6v-6.6h5.6v-6.1h8c1.9,0,4.7-1.9,4.7-5.2-.3-3.6-3.2-5.4-5-5.4" fill="#fff"/>
      <path d="M559,900.53h-28.6c-5.2,0-9.4,4.2-9.4,9.4v28.6c0,5.2,4.2,9.4,9.4,9.4h28.6c5.2,0,9.4-4.2,9.4-9.4v-28.6c-.1-6.2-5.2-9.4-9.4-9.4" fill="#5793ce"/>
      <path d="M543,912.23c0,.9-.9,1.9-2.3,1.9-.9,0-1.9-.9-1.9-1.9,0-.9.9-2.3,1.9-2.3,1.4-.1,2.3.9,2.3,2.3" fill="#fff"/>
      <path d="M539.3,925.33l5.2-5.2.5-.5v-2.8c0-1.4-.9-2.8-2.3-2.8h-3.3c-1.4,0-2.3,1.4-2.3,2.8l.5,4.7c0,.5,0,1.4.5,1.9v3.7l1.2-1.8" fill="#fff"/>
      <path d="M538.8,938.93h-8.5c-1.4,0-2.8-1.4-2.8-2.8s.9-2.3,2.3-2.3h3.7c.9,0,1.9,0,2.3-.9l16.4-16.4c.5-.9,1.4-.9,2.3-.9h5.6c1.4,0,.5,1.4.5,2.3.2,1.3-21.8,21-21.8,21h0ZM560.4,913.13h-6.1c-1.4,0-2.8.5-4.2,1.9l-5.2,5.2-.5.5-5.2,5.2-1.4,1.9-3.3,3.3s-.5.5-1.4.5h-3.3c-2.8,0-5.2,2.8-5.2,5.2s1.9,5.2,5.2,5.2h11.7s22.9-20.1,22.9-23.4c.2-3.6-2.2-5.5-4-5.5" fill="#fff"/>
      <path d="M145,614.43h-30c-5.6,0-9.8,4.7-9.8,9.8v30c0,5.6,4.2,9.8,9.8,9.8h30c5.6,0,9.8-4.7,9.8-9.8v-30c.1-6.6-5.6-9.8-9.8-9.8" fill="#5793ce"/>
      <path d="M138.5,647.63c-.9,5.2-5.2,8.9-10.3,8.9-5.6,0-10.3-4.7-10.3-10.3,0-3.3,1.4-6.6,4.2-8l-.5-3.3c-3.7,2.3-6.6,6.6-6.6,11.2,0,7,5.6,13.1,13.1,13.1,5.2,0,10.3-3.7,12.2-8.4l-1.8-3.2" fill="#fff"/>
      <path d="M122.6,622.83c0-1.9,1.4-3.7,3.7-3.7,1.9,0,3.3,1.9,3.3,3.7s-1.4,3.3-3.3,3.3c-2.3.4-3.7-1.4-3.7-3.3" fill="#fff"/>
      <path d="M138.5,644.33h-11.7c-1.9,0-3.3-1.4-3.7-2.8l-.5-10.3c-.5-1.9.9-3.7,3.3-3.7,1.9,0,3.3,1.4,3.7,3.3l.5,3.7,4.2.9c4.7.5,4.2,1.9,3.7,1.9h-7.5v1.9h8.9c.5,0,1.4.5,1.9.9l6.1,10.8c.5.9,5.6,1.9-1.9,2.8-1.4,0-3.3-2.8-3.7-3.7l-3.3-5.7" fill="#fff"/>
      <path d="M145.5,829.83h-30c-5.6,0-9.8,4.7-9.8,9.8v30c0,5.6,4.2,9.8,9.8,9.8h30c5.6,0,9.8-4.7,9.8-9.8v-30c0-6.1-5.6-9.8-9.8-9.8M136.6,874.73c-22-9.8-20.6-33.2-20.6-35.6,5.2-4.7,10.3-4.2,10.3-4.2,0,0,2.3,9.4,2.8,11.2-.9,1.4-5.6,1.9-6.6,1.9-.5,3.3,8.4,16.4,9.4,16.9.5-1.9,5.2-4.7,5.2-4.7,0,0,6.6,7,7.5,8.4-1,3.3-5.2,5.2-8,6.1" fill="#5793ce"/>
      <path d="M145.5,902.83h-30c-5.6,0-9.8,4.7-9.8,9.8v30c0,5.6,4.2,9.8,9.8,9.8h30c5.6,0,9.8-4.7,9.8-9.8v-30c0-6.1-5.6-9.8-9.8-9.8" fill="#5793ce"/>
      <polygon points="144.1 947.83 130.5 940.73 117.4 948.23 119.7 932.83 109 922.53 124 920.13 130.5 906.53 137.5 920.13 152.5 922.53 141.8 932.83 144.1 947.83" fill="#fff"/>
    </g>
    <g>
      <path d="M559,830.73h-28.6c-5.2,0-9.4,4.2-9.4,9.4v28.6c0,5.2,4.2,9.4,9.4,9.4h28.6c5.2,0,9.4-4.2,9.4-9.4v-28.6c-.1-6.1-5.7-9.4-9.4-9.4" fill="#5793ce"/>
      <g>
        <g>
          <circle cx="550.1" cy="852.23" r="1.4" fill="#fff"/>
          <path d="M554.8,861.13l-.5-1.4-.9-4.2h0s-1.4-.9-2.3-.9h-2c-.5,0-1.4.5-1.4.5,0,0-.5,0-.5.5h0l-.9,4.2-.5,1.4c0,.33.17.63.5.9.5.5.5,0,.9-.5v-.5l.9-4.7h.5l-1.4,5.2-.5,1.9c0,.33.17.5.5.5h1.4l.5,5.6c0,.9,1.4.9,1.4,0l.5-5.6h1.4c.5,0,.5-.5.5-.5l-.5-1.9-1.4-5.2h.5l.9,5.2v.5c0,.5.5.5.9.5,1.5-.5,1.9-1,1.5-1.5h0Z" fill="#fff"/>
        </g>
        <g>
          <ellipse cx="539.3" cy="850.43" rx="1.4" ry="1.9" fill="#fff"/>
          <path d="M542.6,853.23c-.5,0-.5-.5-.9-.5h-5.2c-.5,0-.9.5-.9.5,0,0-.5,0-.5.5v5.7c0,.5.5.9.9.9.5,0,.9-.5.9-.9h0v-4.7h.5l.5,6.6.9,8.4c0,.9,1.4.9,1.4,0l.9-8.4.5-6.6h.5v4.7h0c0,.5.5.9.9.9.5,0,.9-.5.9-.9v-5.7c-.6-.33-1.03-.5-1.3-.5h0Z" fill="#fff"/>
        </g>
        <path d="M528.5,844.33v30.4c0,.5.5.9.9.9h30.4c.5,0,.9-.5.9-.9v-30.4c0-.5-.5-.9-.9-.9h-30.4c-.4-.1-.9.4-.9.9ZM558,873.83h-27.2c-.5,0-.9-.5-.9-.9v-27.2c0-.5.5-.9.9-.9h27.2c.5,0,.9.5.9.9v27.2c.1.9-.4.9-.9.9Z" fill="#fff"/>
        <path d="M553.8,836.33l-3.3-4.2c0-.5-.5-.5-.9,0l-3.3,4.2v.9h0c.5.5.9.5.9,0l.9-1.4h.5v5.2c0,.5.5.9.5.9h.5c.5,0,.5-.5.5-.9v-5.2c0-.5.5-.5.5,0l.9,1.4c.5.5.9.5.9,0h0c1.9,0,1.9-.4,1.4-.9h0Z" fill="#fff"/>
        <path d="M535.6,838.23l3.3,4.2c0,.5.5.5.9,0l3.3-4.2v-.9h0c-.5-.5-.9-.5-.9,0l-.9,1.4h-.5v-5.2c0-.5-.5-.9-.5-.9h-1.4c-.5,0-.5.5-.5.9v5.2c0,.5-.5.5-.5,0l-.9-1.4c-.5-.5-.9-.5-.9,0h0c-1-.1-1,.4-.5.9h0Z" fill="#fff"/>
      </g>
    </g>
  </g>
  <g>
    <path d="M204.89,560.16h-5.72v22.82h-3.2v-22.82h-5.69v-2.38h14.61v2.38Z"/>
    <path d="M207.23,576.94v-13.03c0-5.04,2.45-6.23,7.24-6.23s7.27,1.19,7.27,6.23v13.03c0,5.04-2.48,6.23-7.27,6.23s-7.24-1.19-7.24-6.23ZM218.53,576.94v-13.03c0-2.52-.72-3.96-4.07-3.96s-4.03,1.44-4.03,3.96v13.03c0,2.52.68,3.96,4.03,3.96s4.07-1.44,4.07-3.96Z"/>
    <path d="M226.31,557.79h3.2v25.2h-3.2v-25.2Z"/>
    <path d="M245.46,580.61v2.38h-10.91v-25.2h3.2v22.82h7.71Z"/>
    <path d="M251.9,560.16v8.67h7.88v2.34h-7.88v9.43h7.88v2.38h-11.09v-25.2h11.09v2.38h-7.88Z"/>
    <path d="M276.38,560.16h-5.72v22.82h-3.2v-22.82h-5.69v-2.38h14.61v2.38h0Z"/>
    <path d="M278.65,577.98v-2.59h3.2v2.59c0,1.98,1.58,2.88,4.1,2.88s4-.9,4-3.06v-3.28c0-1.8-.54-3.02-2.84-3.06l-2.77-.11c-3.38-.07-5.69-.76-5.69-4.39v-3.82c0-4.68,3.46-5.51,7.23-5.51s7.27.83,7.27,5.33v2.52h-3.2v-2.52c0-2.16-1.73-3.06-4.07-3.06s-4.03.9-4.03,3.24v3.17c0,1.8.68,2.7,2.77,2.77l2.77.11c3.49.07,5.76.97,5.76,3.96v4.64c0,4.5-3.6,5.33-7.2,5.33s-7.31-.83-7.31-5.15h.01Z"/>
    <path d="M206.94,636.05v12.63c0,5.04-2.34,6.3-7.13,6.3h-7.38v-25.2l7.38-.04c4.79,0,7.13,1.26,7.13,6.3h0ZM203.74,636.05c0-2.52-.58-3.96-3.92-3.96h-4.18v20.55h4.18c3.35,0,3.92-1.44,3.92-3.96v-12.63h0Z"/>
    <path d="M211.51,629.79h3.2v25.2h-3.2v-25.2Z"/>
    <path d="M219.22,649.98v-2.59h3.2v2.59c0,1.98,1.58,2.88,4.1,2.88s4-.9,4-3.06v-3.28c0-1.8-.54-3.02-2.84-3.06l-2.77-.11c-3.38-.07-5.69-.76-5.69-4.39v-3.82c0-4.68,3.46-5.51,7.23-5.51s7.27.83,7.27,5.33v2.52h-3.2v-2.52c0-2.16-1.73-3.06-4.07-3.06s-4.03.9-4.03,3.24v3.17c0,1.8.68,2.7,2.77,2.77l2.77.11c3.49.07,5.76.97,5.76,3.96v4.64c0,4.5-3.6,5.33-7.2,5.33s-7.31-.83-7.31-5.15h0Z"/>
    <path d="M248.3,650.92h-8.28l-1.01,4.07h-2.81l6.48-25.2h3.49l6.48,25.2h-3.31l-1.04-4.07h0ZM247.73,648.58l-3.64-14.33-3.49,14.33h7.13Z"/>
    <path d="M270.08,646.92v2.99c0,4.32-2.81,5.08-6.23,5.08h-8.28v-25.2h7.92c3.42,0,6.23.76,6.23,5.08v2.45c0,3.02-1.04,4.25-2.77,4.75,1.94.43,3.13,1.66,3.13,4.86h0ZM263.49,632.16h-4.72v8.71h4.72c1.98,0,3.02-.9,3.02-2.7v-3.31c0-1.8-1.04-2.7-3.02-2.7ZM266.88,645.84c0-1.8-1.04-2.7-3.02-2.7h-5.08v9.47h5.08c1.98,0,3.02-.9,3.02-2.7v-4.07h0Z"/>
    <path d="M285.38,652.61v2.38h-10.91v-25.2h3.2v22.82h7.71Z"/>
    <path d="M291.83,632.16v8.67h7.88v2.34h-7.88v9.43h7.88v2.38h-11.09v-25.2h11.09v2.38h-7.88Z"/>
    <path d="M341.79,632.16h-5.72v22.82h-3.2v-22.82h-5.69v-2.38h14.61v2.38h0Z"/>
    <path d="M344.14,648.94v-13.03c0-5.04,2.45-6.23,7.24-6.23s7.27,1.19,7.27,6.23v13.03c0,5.04-2.48,6.23-7.27,6.23s-7.24-1.19-7.24-6.23ZM355.44,648.94v-13.03c0-2.52-.72-3.96-4.07-3.96s-4.03,1.44-4.03,3.96v13.03c0,2.52.68,3.96,4.03,3.96s4.07-1.44,4.07-3.96Z"/>
    <path d="M363.22,629.79h3.2v25.2h-3.2v-25.2Z"/>
    <path d="M382.37,652.61v2.38h-10.91v-25.2h3.2v22.82h7.71Z"/>
    <path d="M388.81,632.16v8.67h7.88v2.34h-7.88v9.43h7.88v2.38h-11.09v-25.2h11.09v2.38h-7.88Z"/>
    <path d="M413.29,632.16h-5.72v22.82h-3.2v-22.82h-5.69v-2.38h14.61v2.38h0Z"/>
    <path d="M415.56,649.98v-2.59h3.2v2.59c0,1.98,1.58,2.88,4.1,2.88s4-.9,4-3.06v-3.28c0-1.8-.54-3.02-2.84-3.06l-2.77-.11c-3.38-.07-5.69-.76-5.69-4.39v-3.82c0-4.68,3.46-5.51,7.23-5.51s7.27.83,7.27,5.33v2.52h-3.2v-2.52c0-2.16-1.73-3.06-4.07-3.06s-4.03.9-4.03,3.24v3.17c0,1.8.68,2.7,2.77,2.77l2.77.11c3.49.07,5.76.97,5.76,3.96v4.64c0,4.5-3.6,5.33-7.2,5.33s-7.31-.83-7.31-5.15h.01Z"/>
    <path d="M206.76,707.69v3.53c0,4.68-1.91,6.3-7.05,6.3h-4.07v9.47h-3.2v-25.2l7.2-.04c4.79,0,7.13,1.26,7.13,5.94h0ZM203.55,707.69c0-2.16-.58-3.6-3.92-3.6h-4v11.16h4c3.35,0,3.92-1.44,3.92-3.6v-3.96Z"/>
    <path d="M219.36,722.92h-8.28l-1.01,4.07h-2.81l6.48-25.2h3.49l6.48,25.2h-3.31l-1.04-4.07h0ZM218.78,720.58l-3.64-14.33-3.49,14.33h7.13Z"/>
    <path d="M238.26,726.98l-4.35-9.47h-4.07v9.47h-3.2v-25.2l7.09-.04c4.79,0,7.16,1.26,7.16,5.94v3.53c0,3.46-1.04,5.22-3.64,5.94l4.46,9.83h-3.46.01ZM229.84,715.25h3.89c3.35,0,3.96-1.44,3.96-3.6v-3.96c0-2.16-.61-3.6-3.96-3.6h-3.89v11.16Z"/>
    <path d="M248.3,704.16v8.67h7.88v2.34h-7.88v9.43h7.88v2.38h-11.09v-25.2h11.09v2.38h-7.88,0Z"/>
    <path d="M274.83,701.79v25.2h-3.13l-8.75-18.97v18.97h-2.63v-25.2h3.13l8.78,19.94v-19.94h2.6Z"/>
    <path d="M292.33,704.16h-5.72v22.82h-3.2v-22.82h-5.69v-2.38h14.61v2.38h0Z"/>
    <path d="M293.59,708.91c1.19-.29,1.69-1.37,1.73-2.74h-1.58v-4.36h3.56v3.71c0,2.12-1.44,4.39-3.71,4.54v-1.15h0Z"/>
    <path d="M300.18,721.98v-2.59h3.2v2.59c0,1.98,1.58,2.88,4.1,2.88s4-.9,4-3.06v-3.28c0-1.8-.54-3.02-2.84-3.06l-2.77-.11c-3.38-.07-5.69-.76-5.69-4.39v-3.82c0-4.68,3.46-5.51,7.23-5.51s7.27.83,7.27,5.33v2.52h-3.2v-2.52c0-2.16-1.73-3.06-4.07-3.06s-4.03.9-4.03,3.24v3.17c0,1.8.68,2.7,2.77,2.77l2.77.11c3.49.07,5.76.97,5.76,3.96v4.64c0,4.5-3.6,5.33-7.2,5.33s-7.31-.83-7.31-5.15h.01Z"/>
    <path d="M338.3,726.98l-4.36-9.47h-4.07v9.47h-3.2v-25.2l7.09-.04c4.79,0,7.16,1.26,7.16,5.94v3.53c0,3.46-1.04,5.22-3.64,5.94l4.46,9.83h-3.46.02ZM329.88,715.25h3.89c3.35,0,3.96-1.44,3.96-3.6v-3.96c0-2.16-.61-3.6-3.96-3.6h-3.89v11.16Z"/>
    <path d="M344.78,720.94v-13.03c0-5.04,2.45-6.23,7.24-6.23s7.27,1.19,7.27,6.23v13.03c0,5.04-2.48,6.23-7.27,6.23s-7.24-1.19-7.24-6.23ZM356.08,720.94v-13.03c0-2.52-.72-3.96-4.07-3.96s-4.03,1.44-4.03,3.96v13.03c0,2.52.68,3.96,4.03,3.96s4.07-1.44,4.07-3.96Z"/>
    <path d="M363.61,720.94v-13.03c0-5.04,2.45-6.23,7.24-6.23s7.27,1.19,7.27,6.23v13.03c0,5.04-2.48,6.23-7.27,6.23s-7.24-1.19-7.24-6.23ZM374.91,720.94v-13.03c0-2.52-.72-3.96-4.07-3.96s-4.03,1.44-4.03,3.96v13.03c0,2.52.68,3.96,4.03,3.96s4.07-1.44,4.07-3.96Z"/>
    <path d="M401.77,701.79v25.2h-2.95v-18.86l-5.54,18.86h-2.52l-5.47-18.61v18.61h-2.59v-25.2h3.49l6.08,20.01,6.01-20.01h3.49Z"/>
    <path d="M206.76,779.69v3.53c0,4.68-1.91,6.3-7.05,6.3h-4.07v9.47h-3.2v-25.2l7.2-.04c4.79,0,7.13,1.26,7.13,5.94h0ZM203.55,779.69c0-2.16-.58-3.6-3.92-3.6h-4v11.16h4c3.35,0,3.92-1.44,3.92-3.6v-3.96Z"/>
    <path d="M210,792.94v-13.03c0-5.04,2.45-6.23,7.24-6.23s7.27,1.19,7.27,6.23v13.03c0,5.04-2.48,6.23-7.27,6.23s-7.24-1.19-7.24-6.23ZM221.3,792.94v-13.03c0-2.52-.72-3.96-4.07-3.96s-4.03,1.44-4.03,3.96v13.03c0,2.52.68,3.96,4.03,3.96s4.07-1.44,4.07-3.96Z"/>
    <path d="M228.65,793.98v-2.59h3.2v2.59c0,1.98,1.58,2.88,4.1,2.88s4-.9,4-3.06v-3.28c0-1.8-.54-3.02-2.84-3.06l-2.77-.11c-3.38-.07-5.69-.76-5.69-4.39v-3.82c0-4.68,3.46-5.51,7.23-5.51s7.27.83,7.27,5.33v2.52h-3.2v-2.52c0-2.16-1.73-3.06-4.07-3.06s-4.03.9-4.03,3.24v3.17c0,1.8.68,2.7,2.77,2.77l2.77.11c3.49.07,5.76.97,5.76,3.96v4.64c0,4.5-3.6,5.33-7.2,5.33s-7.31-.83-7.31-5.15h0Z"/>
    <path d="M260.11,776.16h-5.72v22.82h-3.2v-22.82h-5.69v-2.38h14.61v2.38Z"/>
    <path d="M284.99,790.92v2.99c0,4.32-2.81,5.08-6.23,5.08h-8.28v-25.2h7.92c3.42,0,6.23.76,6.23,5.08v2.45c0,3.02-1.04,4.25-2.77,4.75,1.94.43,3.13,1.66,3.13,4.86h0ZM278.4,776.16h-4.72v8.71h4.72c1.98,0,3.02-.9,3.02-2.7v-3.31c0-1.8-1.04-2.7-3.02-2.7ZM281.78,789.84c0-1.8-1.04-2.7-3.02-2.7h-5.08v9.47h5.08c1.98,0,3.02-.9,3.02-2.7v-4.07h0Z"/>
    <path d="M289.13,792.94v-13.03c0-5.04,2.45-6.23,7.24-6.23s7.27,1.19,7.27,6.23v13.03c0,5.04-2.48,6.23-7.27,6.23s-7.24-1.19-7.24-6.23ZM300.43,792.94v-13.03c0-2.52-.72-3.96-4.07-3.96s-4.03,1.44-4.03,3.96v13.03c0,2.52.68,3.96,4.03,3.96s4.07-1.44,4.07-3.96Z"/>
    <path d="M314.79,785.88l6.26,13.1h-3.35l-4.68-9.72-5.04,9.72h-2.66l6.41-12.42-6.12-12.78h3.38l4.5,9.39,4.86-9.39h2.7l-6.26,12.09h0Z"/>
    <path d="M206.76,851.69v3.53c0,4.68-1.91,6.3-7.05,6.3h-4.07v9.47h-3.2v-25.2l7.2-.04c4.79,0,7.13,1.26,7.13,5.94h0ZM203.55,851.69c0-2.16-.58-3.6-3.92-3.6h-4v11.16h4c3.35,0,3.92-1.44,3.92-3.6v-3.96Z"/>
    <path d="M210,864.9v-19.11h3.2v19.11c0,2.52.68,3.96,4.03,3.96s4.07-1.44,4.07-3.96v-19.11h3.2v19.11c0,5.04-2.48,6.23-7.27,6.23s-7.24-1.19-7.24-6.23h.01Z"/>
    <path d="M243.69,862.92v2.99c0,4.32-2.81,5.08-6.23,5.08h-8.28v-25.2h7.92c3.42,0,6.23.76,6.23,5.08v2.45c0,3.02-1.04,4.25-2.77,4.75,1.94.43,3.13,1.66,3.13,4.86h0ZM237.11,848.16h-4.72v8.71h4.72c1.98,0,3.02-.9,3.02-2.7v-3.31c0-1.8-1.04-2.7-3.02-2.7ZM240.49,861.84c0-1.8-1.04-2.7-3.02-2.7h-5.08v9.47h5.08c1.98,0,3.02-.9,3.02-2.7v-4.07h0Z"/>
    <path d="M258.99,868.61v2.38h-10.91v-25.2h3.2v22.82h7.71Z"/>
    <path d="M262.24,845.79h3.2v25.2h-3.2v-25.2Z"/>
    <path d="M270.12,864.9v-13.03c0-5.04,2.45-6.23,7.24-6.23s7.27,1.19,7.27,5.33v2.41h-3.2v-2.41c0-1.62-.72-3.06-4.07-3.06s-4.03,1.44-4.03,3.96v13.03c0,2.52.68,3.96,4.03,3.96s4.07-1.62,4.07-3.24v-2.27h3.2v2.27c0,4.14-2.48,5.54-7.27,5.54s-7.24-1.22-7.24-6.26h0Z"/>
    <path d="M308.89,848.16h-5.72v22.82h-3.2v-22.82h-5.69v-2.38h14.61v2.38h0Z"/>
    <path d="M314.97,848.16v8.67h7.88v2.34h-7.88v9.43h7.88v2.38h-11.09v-25.2h11.09v2.38h-7.88Z"/>
    <path d="M337.91,868.61v2.38h-10.91v-25.2h3.2v22.82h7.71Z"/>
    <path d="M344.35,848.16v8.67h7.88v2.34h-7.88v9.43h7.88v2.38h-11.09v-25.2h11.09v2.38h-7.88Z"/>
    <path d="M370.7,851.69v3.53c0,4.68-1.91,6.3-7.06,6.3h-4.07v9.47h-3.2v-25.2l7.2-.04c4.79,0,7.13,1.26,7.13,5.94ZM367.5,851.69c0-2.16-.58-3.6-3.92-3.6h-4v11.16h4c3.35,0,3.92-1.44,3.92-3.6v-3.96Z"/>
    <path d="M388.81,845.79v25.2h-3.2v-11.81h-8.1v11.81h-3.2v-25.2h3.2v11.05h8.1v-11.05h3.2Z"/>
    <path d="M393.49,864.94v-13.03c0-5.04,2.45-6.23,7.24-6.23s7.27,1.19,7.27,6.23v13.03c0,5.04-2.48,6.23-7.27,6.23s-7.24-1.19-7.24-6.23ZM404.79,864.94v-13.03c0-2.52-.72-3.96-4.07-3.96s-4.03,1.44-4.03,3.96v13.03c0,2.52.68,3.96,4.03,3.96s4.07-1.44,4.07-3.96Z"/>
    <path d="M427.08,845.79v25.2h-3.13l-8.75-18.97v18.97h-2.63v-25.2h3.13l8.78,19.94v-19.94h2.6Z"/>
    <path d="M435.32,848.16v8.67h7.88v2.34h-7.88v9.43h7.88v2.38h-11.09v-25.2h11.09v2.38h-7.88Z"/>
    <path d="M192.07,936.9v-13.03c0-5.04,2.45-6.23,7.24-6.23s7.27,1.19,7.27,5.33v2.41h-3.2v-2.41c0-1.62-.72-3.06-4.07-3.06s-4.03,1.44-4.03,3.96v13.03c0,2.52.68,3.96,4.03,3.96s4.07-1.62,4.07-3.24v-2.27h3.2v2.27c0,4.14-2.48,5.54-7.27,5.54s-7.24-1.22-7.24-6.26h0Z"/>
    <path d="M214.1,920.16v8.67h7.88v2.34h-7.88v9.43h7.88v2.38h-11.09v-25.2h11.09v2.38h-7.88Z"/>
    <path d="M240.63,917.79v25.2h-3.13l-8.75-18.97v18.97h-2.63v-25.2h3.13l8.78,19.94v-19.94h2.6Z"/>
    <path d="M258.13,920.16h-5.72v22.82h-3.2v-22.82h-5.69v-2.38h14.61v2.38Z"/>
    <path d="M272.64,942.98l-4.36-9.47h-4.07v9.47h-3.2v-25.2l7.09-.04c4.79,0,7.16,1.26,7.16,5.94v3.53c0,3.46-1.04,5.22-3.64,5.94l4.46,9.83h-3.46.02ZM264.22,931.25h3.89c3.35,0,3.96-1.44,3.96-3.6v-3.96c0-2.16-.61-3.6-3.96-3.6h-3.89v11.16Z"/>
    <path d="M282.68,920.16v8.67h7.88v2.34h-7.88v9.43h7.88v2.38h-11.09v-25.2h11.09v2.38h-7.88Z"/>
    <path d="M301.83,936.9v-13.03c0-5.04,2.45-6.23,7.24-6.23s7.27,1.19,7.27,5.33v2.41h-3.2v-2.41c0-1.62-.72-3.06-4.07-3.06s-4.03,1.44-4.03,3.96v13.03c0,2.52.68,3.96,4.03,3.96s4.07-1.62,4.07-3.24v-2.27h3.2v2.27c0,4.14-2.48,5.54-7.27,5.54s-7.24-1.22-7.24-6.26h0Z"/>
    <path d="M320.3,936.94v-13.03c0-5.04,2.45-6.23,7.24-6.23s7.27,1.19,7.27,6.23v13.03c0,5.04-2.48,6.23-7.27,6.23s-7.24-1.19-7.24-6.23ZM331.6,936.94v-13.03c0-2.52-.72-3.96-4.07-3.96s-4.03,1.44-4.03,3.96v13.03c0,2.52.68,3.96,4.03,3.96s4.07-1.44,4.07-3.96Z"/>
    <path d="M339.13,936.9v-19.11h3.2v19.11c0,2.52.68,3.96,4.03,3.96s4.07-1.44,4.07-3.96v-19.11h3.2v19.11c0,5.04-2.48,6.23-7.27,6.23s-7.24-1.19-7.24-6.23h0Z"/>
    <path d="M369.94,942.98l-4.36-9.47h-4.07v9.47h-3.2v-25.2l7.09-.04c4.79,0,7.16,1.26,7.16,5.94v3.53c0,3.46-1.04,5.22-3.64,5.94l4.46,9.83h-3.46.02ZM361.52,931.25h3.89c3.35,0,3.96-1.44,3.96-3.6v-3.96c0-2.16-.61-3.6-3.96-3.6h-3.89v11.16Z"/>
    <path d="M389.24,920.16h-5.72v22.82h-3.2v-22.82h-5.69v-2.38h14.61v2.38h0Z"/>
    <path d="M202.51,1010.92h-8.28l-1.01,4.07h-2.81l6.48-25.2h3.49l6.48,25.2h-3.31l-1.04-4.07h0ZM201.94,1008.58l-3.64-14.33-3.49,14.33h7.13Z"/>
    <path d="M220.91,992.16h-5.72v22.82h-3.2v-22.82h-5.69v-2.38h14.61v2.38Z"/>
    <path d="M242.87,989.79v25.2h-2.95v-18.86l-5.54,18.86h-2.52l-5.47-18.61v18.61h-2.59v-25.2h3.49l6.08,20.01,6.01-20.01h3.49,0Z"/>
  </g>
  <g>
    <path d="M625.26,574.92v2.99c0,4.32-2.81,5.08-6.23,5.08h-8.28v-25.2h7.92c3.42,0,6.23.76,6.23,5.08v2.45c0,3.02-1.04,4.25-2.77,4.75,1.94.43,3.13,1.66,3.13,4.86h0ZM618.68,560.16h-4.71v8.71h4.71c1.98,0,3.02-.9,3.02-2.7v-3.31c0-1.8-1.04-2.7-3.02-2.7ZM622.06,573.84c0-1.8-1.04-2.7-3.02-2.7h-5.08v9.47h5.08c1.98,0,3.02-.9,3.02-2.7v-4.07h0Z"/>
    <path d="M629.41,576.9v-19.11h3.2v19.11c0,2.52.68,3.96,4.03,3.96s4.07-1.44,4.07-3.96v-19.11h3.2v19.11c0,5.04-2.48,6.23-7.27,6.23s-7.24-1.19-7.24-6.23h0Z"/>
    <path d="M648.05,577.98v-2.59h3.2v2.59c0,1.98,1.58,2.88,4.1,2.88s4-.9,4-3.06v-3.28c0-1.8-.54-3.02-2.84-3.06l-2.77-.11c-3.38-.07-5.69-.76-5.69-4.39v-3.82c0-4.68,3.46-5.51,7.23-5.51s7.27.83,7.27,5.33v2.52h-3.2v-2.52c0-2.16-1.73-3.06-4.07-3.06s-4.03.9-4.03,3.24v3.17c0,1.8.68,2.7,2.77,2.77l2.77.11c3.49.07,5.76.97,5.76,3.96v4.64c0,4.5-3.6,5.33-7.2,5.33s-7.31-.83-7.31-5.15h.01Z"/>
    <path d="M670.26,560.16v8.67h7.88v2.34h-7.88v9.43h7.88v2.38h-11.09v-25.2h11.09v2.38h-7.88Z"/>
    <path d="M681.75,577.98v-2.59h3.2v2.59c0,1.98,1.58,2.88,4.1,2.88s4-.9,4-3.06v-3.28c0-1.8-.54-3.02-2.84-3.06l-2.77-.11c-3.38-.07-5.69-.76-5.69-4.39v-3.82c0-4.68,3.46-5.51,7.24-5.51s7.27.83,7.27,5.33v2.52h-3.2v-2.52c0-2.16-1.73-3.06-4.07-3.06s-4.03.9-4.03,3.24v3.17c0,1.8.68,2.7,2.77,2.77l2.77.11c3.49.07,5.76.97,5.76,3.96v4.64c0,4.5-3.6,5.33-7.2,5.33s-7.31-.83-7.31-5.15h0Z"/>
    <path d="M623.21,632.16h-5.72v22.82h-3.2v-22.82h-5.69v-2.38h14.61v2.38Z"/>
    <path d="M634.8,650.92h-8.28l-1.01,4.07h-2.81l6.48-25.2h3.49l6.48,25.2h-3.31l-1.04-4.07h0ZM634.23,648.58l-3.64-14.33-3.49,14.33h7.13Z"/>
    <path d="M649.46,641.88l6.26,13.1h-3.35l-4.68-9.72-5.04,9.72h-2.66l6.41-12.42-6.12-12.78h3.38l4.5,9.39,4.86-9.39h2.7l-6.26,12.09h0Z"/>
    <path d="M657.92,629.79h3.2v25.2h-3.2v-25.2Z"/>
    <path d="M665.62,649.98v-2.59h3.2v2.59c0,1.98,1.58,2.88,4.1,2.88s4-.9,4-3.06v-3.28c0-1.8-.54-3.02-2.84-3.06l-2.77-.11c-3.38-.07-5.69-.76-5.69-4.39v-3.82c0-4.68,3.46-5.51,7.24-5.51s7.27.83,7.27,5.33v2.52h-3.2v-2.52c0-2.16-1.73-3.06-4.07-3.06s-4.03.9-4.03,3.24v3.17c0,1.8.68,2.7,2.77,2.77l2.77.11c3.49.07,5.76.97,5.76,3.96v4.64c0,4.5-3.6,5.33-7.2,5.33s-7.31-.83-7.31-5.15h0Z"/>
    <path d="M610.22,721.98v-2.59h3.2v2.59c0,1.98,1.58,2.88,4.1,2.88s4-.9,4-3.06v-3.28c0-1.8-.54-3.02-2.84-3.06l-2.77-.11c-3.38-.07-5.69-.76-5.69-4.39v-3.82c0-4.68,3.46-5.51,7.23-5.51s7.27.83,7.27,5.33v2.52h-3.2v-2.52c0-2.16-1.73-3.06-4.07-3.06s-4.03.9-4.03,3.24v3.17c0,1.8.68,2.7,2.77,2.77l2.77.11c3.49.07,5.76.97,5.76,3.96v4.64c0,4.5-3.6,5.33-7.2,5.33s-7.31-.83-7.31-5.15h.01Z"/>
    <path d="M641.68,704.16h-5.72v22.82h-3.2v-22.82h-5.69v-2.38h14.61v2.38Z"/>
    <path d="M653.27,722.92h-8.28l-1.01,4.07h-2.81l6.48-25.2h3.49l6.48,25.2h-3.31l-1.04-4.07h0ZM652.7,720.58l-3.64-14.33-3.49,14.33h7.13Z"/>
    <path d="M660.54,701.79h3.2v25.2h-3.2v-25.2Z"/>
    <path d="M680.41,726.98l-4.36-9.47h-4.07v9.47h-3.2v-25.2l7.09-.04c4.79,0,7.16,1.26,7.16,5.94v3.53c0,3.46-1.04,5.22-3.64,5.94l4.46,9.83h-3.46.02ZM671.99,715.25h3.89c3.35,0,3.96-1.44,3.96-3.6v-3.96c0-2.16-.61-3.6-3.96-3.6h-3.89v11.16Z"/>
    <path d="M686.61,721.98v-2.59h3.2v2.59c0,1.98,1.58,2.88,4.1,2.88s4-.9,4-3.06v-3.28c0-1.8-.54-3.02-2.84-3.06l-2.77-.11c-3.38-.07-5.69-.76-5.69-4.39v-3.82c0-4.68,3.46-5.51,7.23-5.51s7.27.83,7.27,5.33v2.52h-3.2v-2.52c0-2.16-1.73-3.06-4.07-3.06s-4.03.9-4.03,3.24v3.17c0,1.8.68,2.7,2.77,2.77l2.77.11c3.49.07,5.76.97,5.76,3.96v4.64c0,4.5-3.6,5.33-7.2,5.33s-7.31-.83-7.31-5.15h.01Z"/>
    <path d="M613.96,776.16v8.67h7.88v2.34h-7.88v9.43h7.88v2.38h-11.09v-25.2h11.09v2.38h-7.88Z"/>
    <path d="M625.45,793.98v-2.59h3.2v2.59c0,1.98,1.58,2.88,4.1,2.88s4-.9,4-3.06v-3.28c0-1.8-.54-3.02-2.84-3.06l-2.77-.11c-3.38-.07-5.69-.76-5.69-4.39v-3.82c0-4.68,3.46-5.51,7.23-5.51s7.27.83,7.27,5.33v2.52h-3.2v-2.52c0-2.16-1.73-3.06-4.07-3.06s-4.03.9-4.03,3.24v3.17c0,1.8.68,2.7,2.77,2.77l2.77.11c3.49.07,5.76.97,5.76,3.96v4.64c0,4.5-3.6,5.33-7.2,5.33s-7.31-.83-7.31-5.15h.01Z"/>
    <path d="M644.09,792.9v-13.03c0-5.04,2.45-6.23,7.24-6.23s7.27,1.19,7.27,5.33v2.41h-3.2v-2.41c0-1.62-.72-3.06-4.07-3.06s-4.03,1.44-4.03,3.96v13.03c0,2.52.68,3.96,4.03,3.96s4.07-1.62,4.07-3.24v-2.27h3.2v2.27c0,4.14-2.48,5.54-7.27,5.54s-7.24-1.22-7.24-6.26h0Z"/>
    <path d="M673,794.92h-8.28l-1.01,4.07h-2.81l6.48-25.2h3.49l6.48,25.2h-3.31l-1.04-4.07h0ZM672.42,792.58l-3.64-14.33-3.49,14.33h7.13Z"/>
    <path d="M691.18,796.61v2.38h-10.91v-25.2h3.2v22.82h7.71Z"/>
    <path d="M704.86,794.92h-8.28l-1.01,4.07h-2.81l6.48-25.2h3.49l6.48,25.2h-3.31l-1.04-4.07h0ZM704.28,792.58l-3.64-14.33-3.49,14.33h7.13Z"/>
    <path d="M723.25,776.16h-5.72v22.82h-3.2v-22.82h-5.69v-2.38h14.61v2.38Z"/>
    <path d="M725.6,792.94v-13.03c0-5.04,2.45-6.23,7.24-6.23s7.27,1.19,7.27,6.23v13.03c0,5.04-2.48,6.23-7.27,6.23s-7.24-1.19-7.24-6.23ZM736.9,792.94v-13.03c0-2.52-.72-3.96-4.07-3.96s-4.03,1.44-4.03,3.96v13.03c0,2.52.68,3.96,4.03,3.96s4.07-1.44,4.07-3.96Z"/>
    <path d="M756.3,798.98l-4.36-9.47h-4.07v9.47h-3.2v-25.2l7.09-.04c4.79,0,7.16,1.26,7.16,5.94v3.53c0,3.46-1.04,5.22-3.64,5.94l4.46,9.83h-3.46.02ZM747.88,787.25h3.89c3.35,0,3.96-1.44,3.96-3.6v-3.96c0-2.16-.61-3.6-3.96-3.6h-3.89v11.16Z"/>
    <path d="M762.5,793.98v-2.59h3.2v2.59c0,1.98,1.58,2.88,4.1,2.88s4-.9,4-3.06v-3.28c0-1.8-.54-3.02-2.84-3.06l-2.77-.11c-3.38-.07-5.69-.76-5.69-4.39v-3.82c0-4.68,3.46-5.51,7.23-5.51s7.27.83,7.27,5.33v2.52h-3.2v-2.52c0-2.16-1.73-3.06-4.07-3.06s-4.03.9-4.03,3.24v3.17c0,1.8.68,2.7,2.77,2.77l2.77.11c3.49.07,5.76.97,5.76,3.96v4.64c0,4.5-3.6,5.33-7.2,5.33s-7.31-.83-7.31-5.15h.01Z"/>
    <path d="M621.66,868.61v2.38h-10.91v-25.2h3.2v22.82h7.71Z"/>
    <path d="M624.91,845.79h3.2v25.2h-3.2v-25.2Z"/>
    <path d="M636.35,848.16v8.67h7.88v2.34h-7.88v11.81h-3.2v-25.2h11.09v2.38h-7.89Z"/>
    <path d="M660.54,848.16h-5.72v22.82h-3.2v-22.82h-5.69v-2.38h14.61v2.38Z"/>
    <path d="M662.81,865.98v-2.59h3.2v2.59c0,1.98,1.58,2.88,4.1,2.88s4-.9,4-3.06v-3.28c0-1.8-.54-3.02-2.84-3.06l-2.77-.11c-3.38-.07-5.69-.76-5.69-4.39v-3.82c0-4.68,3.46-5.51,7.24-5.51s7.27.83,7.27,5.33v2.52h-3.2v-2.52c0-2.16-1.73-3.06-4.07-3.06s-4.03.9-4.03,3.24v3.17c0,1.8.68,2.7,2.77,2.77l2.77.11c3.49.07,5.76.97,5.76,3.96v4.64c0,4.5-3.6,5.33-7.2,5.33s-7.31-.83-7.31-5.15h0Z"/>
    <path d="M623.21,920.16h-5.72v22.82h-3.2v-22.82h-5.69v-2.38h14.61v2.38Z"/>
    <path d="M637.72,942.98l-4.36-9.47h-4.07v9.47h-3.2v-25.2l7.09-.04c4.79,0,7.16,1.26,7.16,5.94v3.53c0,3.46-1.04,5.22-3.64,5.94l4.46,9.83h-3.46.02ZM629.3,931.25h3.89c3.35,0,3.96-1.44,3.96-3.6v-3.96c0-2.16-.61-3.6-3.96-3.6h-3.89v11.16Z"/>
    <path d="M654.64,938.92h-8.28l-1.01,4.07h-2.81l6.48-25.2h3.49l6.48,25.2h-3.31l-1.04-4.07h0ZM654.06,936.58l-3.64-14.33-3.49,14.33h7.13Z"/>
    <path d="M675.16,917.79l-6.48,25.2h-3.49l-6.48-25.2h3.31l5.25,20.88,5.08-20.88h2.81,0Z"/>
    <path d="M681.21,920.16v8.67h7.88v2.34h-7.88v9.43h7.88v2.38h-11.09v-25.2h11.09v2.38h-7.88Z"/>
    <path d="M704.14,940.61v2.38h-10.91v-25.2h3.2v22.82h7.71Z"/>
    <path d="M717.82,938.92h-8.28l-1.01,4.07h-2.81l6.48-25.2h3.49l6.48,25.2h-3.31l-1.04-4.07h0ZM717.24,936.58l-3.64-14.33-3.49,14.33h7.13Z"/>
    <path d="M736.21,920.16h-5.72v22.82h-3.2v-22.82h-5.69v-2.38h14.61v2.38Z"/>
    <path d="M738.56,936.94v-13.03c0-5.04,2.45-6.23,7.24-6.23s7.27,1.19,7.27,6.23v13.03c0,5.04-2.48,6.23-7.27,6.23s-7.24-1.19-7.24-6.23ZM749.86,936.94v-13.03c0-2.52-.72-3.96-4.07-3.96s-4.03,1.44-4.03,3.96v13.03c0,2.52.68,3.96,4.03,3.96s4.07-1.44,4.07-3.96Z"/>
    <path d="M769.26,942.98l-4.36-9.47h-4.07v9.47h-3.2v-25.2l7.09-.04c4.79,0,7.16,1.26,7.16,5.94v3.53c0,3.46-1.04,5.22-3.64,5.94l4.46,9.83h-3.46.02ZM760.84,931.25h3.89c3.35,0,3.96-1.44,3.96-3.6v-3.96c0-2.16-.61-3.6-3.96-3.6h-3.89v11.16Z"/>
    <path d="M775.46,937.98v-2.59h3.2v2.59c0,1.98,1.58,2.88,4.1,2.88s4-.9,4-3.06v-3.28c0-1.8-.54-3.02-2.84-3.06l-2.77-.11c-3.38-.07-5.69-.76-5.69-4.39v-3.82c0-4.68,3.46-5.51,7.24-5.51s7.27.83,7.27,5.33v2.52h-3.2v-2.52c0-2.16-1.73-3.06-4.07-3.06s-4.03.9-4.03,3.24v3.17c0,1.8.68,2.7,2.77,2.77l2.77.11c3.49.07,5.76.97,5.76,3.96v4.64c0,4.5-3.6,5.33-7.2,5.33s-7.31-.83-7.31-5.15h0Z"/>
  </g>
  <path d="M317.94,636.05v12.63c0,5.04-2.34,6.3-7.13,6.3h-7.38v-25.2l7.38-.04c4.79,0,7.13,1.26,7.13,6.3h0ZM314.74,636.05c0-2.52-.58-3.96-3.92-3.96h-4.18v20.55h4.18c3.35,0,3.92-1.44,3.92-3.96v-12.63h0Z"/>
</svg>